# Blender v2.73 (sub 0) OBJ File: 'slope_test_ocorner_onetexture.blend'
# www.blender.org
o Cube_Cube.002
v 0.500000 0.500000 0.500000
v -0.500000 -0.500000 0.500000
v 0.500000 -0.500000 0.500000
v -0.500000 -0.500000 -0.500000
v 0.500000 -0.500000 -0.500000
vt 1.000000 1.000000
vt 0.000000 1.000000
vt 0.000000 0.000000
vt 1.000000 0.000000
vn 0.000000 -1.000000 -0.000000
vn 1.000000 0.000000 0.000000
vn 0.000000 -0.000000 1.000000
vn -0.707100 0.707100 0.000000
vn 0.000000 0.707100 -0.707100
s off
f 3/1/1 2/2/1 4/3/1 5/4/1
f 1/2/2 3/3/2 5/4/2
f 1/1/3 2/3/3 3/4/3
f 1/1/4 4/3/4 2/4/4
f 1/2/5 5/3/5 4/4/5
