{"asset":{"generator":"Khronos glTF Blender I/O v1.7.33","version":"2.0"},"scene":0,"scenes":[{"name":"Scene","nodes":[0]}],"nodes":[{"mesh":0,"name":"Spider"}],"materials":[{"doubleSided":true,"name":"Material.001","pbrMetallicRoughness":{}}],"meshes":[{"name":"Cube","primitives":[{"attributes":{"POSITION":0,"NORMAL":1,"TEXCOORD_0":2},"indices":3,"material":0}]}],"accessors":[{"bufferView":0,"componentType":5126,"count":1000,"max":[2.742279291152954,1.4045029878616333,2.0192716121673584],"min":[-2.742279291152954,-0.6434623599052429,-3.534085512161255],"type":"VEC3"},{"bufferView":1,"componentType":5126,"count":1000,"type":"VEC3"},{"bufferView":2,"componentType":5126,"count":1000,"type":"VEC2"},{"bufferView":3,"componentType":5123,"count":1500,"type":"SCALAR"}],"bufferViews":[{"buffer":0,"byteLength":12000,"byteOffset":0},{"buffer":0,"byteLength":12000,"byteOffset":12000},{"buffer":0,"byteLength":8000,"byteOffset":24000},{"buffer":0,"byteLength":3000,"byteOffset":32000}],"buffers":[{"byteLength":35000,"uri":"data:application/octet-stream;base64,"}]}
